<svg width="56" height="26" viewBox="0 0 56 26" fill="none" xmlns="http://www.w3.org/2000/svg">
<path d="M25.1649 13.327C25.1649 13.327 29.3489 13.4296 29.389 13.4091C31.1307 13.4091 32.6922 12.1165 32.6922 10.1264C32.6922 8.36194 31.451 6.88472 29.0687 6.88472C28.8685 6.88472 28.2479 6.88472 27.5672 6.88472L27.1268 6.14611C27.5672 6.14611 28.388 6.14611 28.7484 6.14611C29.449 6.14611 30.3299 5.61267 30.7703 4.77147L31.2708 3.95079L31.5911 5.7768C31.4109 5.98197 31.2308 6.18714 31.0706 6.33076C31.5511 6.43335 32.1316 6.76162 32.7522 7.27454C33.3728 7.78747 34.0134 9.01848 34.0134 10.1264C34.0134 11.8909 32.8723 14.2093 30.0296 14.2093C29.369 14.2093 23.2831 14.1682 23.2831 14.1682V13.5527C23.4833 13.4912 23.8637 13.2245 23.8637 12.6295C23.8637 12.0345 23.8637 1.96065 23.8637 1.96065C23.8637 1.57082 23.6034 1.20152 23.2831 1.09894C23.2831 0.99635 23.2831 0.565494 23.2831 0.462909C23.3832 0.462909 28.1678 0.421875 28.4681 0.421875C28.7884 0.421875 29.7493 0.421875 30.39 0.709113C30.8904 0.934799 31.2708 1.24255 31.511 1.52979H29.7694C29.409 1.32462 29.0086 1.20152 28.5882 1.20152H25.1049L25.1649 13.327Z" fill="#80879A"/>
<path d="M30.3699 1.9812C30.7302 1.9812 33.0925 1.9812 33.1726 1.9812C33.1726 2.06327 33.1726 2.49413 33.1726 2.63774C32.6721 2.80188 32.5319 3.08912 32.6921 3.70463L33.3327 7.15148C33.2526 7.04889 33.1525 6.96682 33.0725 6.88476C32.7722 6.61804 32.4519 6.41287 32.1716 6.24873L31.531 2.65826L30.3899 4.56634C30.0095 5.2434 29.3088 5.65374 28.7883 5.65374H28.2678L30.3699 1.9812Z" fill="#80879A"/>
<path d="M25.6054 4.32007V6.80262L27.3671 9.71603L28.7684 7.31554H27.7674L27.5272 7.72588L27.307 7.31554L25.6054 4.32007Z" fill="#80879A"/>
<path d="M23.4432 2.00171C22.9428 2.00171 22.2621 2.00171 22.182 2.00171C22.182 2.10429 22.182 2.57618 22.182 2.67877C22.7025 2.88394 22.7826 3.17118 22.7225 3.51996C22.7225 3.51996 20.6806 14.435 20.6005 14.9069C20.5004 15.3788 20.1 15.5224 19.8998 15.5224C19.8998 15.7276 19.8998 16.1994 19.8998 16.1994H22.4423C22.4423 16.1994 22.4423 15.707 22.4423 15.5429C21.8617 15.5429 21.6415 14.9274 21.7216 14.4965C21.7616 14.3119 22.9027 7.82853 23.4432 4.79202V2.00171Z" fill="#80879A"/>
<path d="M33.6331 14.599C33.6331 15.2145 33.2927 15.5018 32.8924 15.5018V16.1788H35.4548C35.4548 16.1788 35.4548 15.6864 35.4548 15.5223C35.1145 15.4197 34.8142 15.3171 34.7141 14.599L34.1936 11.7882C34.0134 12.2806 33.7532 12.773 33.3928 13.2039L33.6331 14.599Z" fill="#80879A"/>
<path d="M3.30391 21.9335C3.5041 21.7488 3.62422 21.4411 3.62422 21.0718C3.62422 20.4973 3.14375 19.9639 2.44308 19.9639H0.240961V20.2511C0.421134 20.2511 0.581289 20.3537 0.581289 20.5794C0.581289 20.5794 0.581289 24.6417 0.581289 24.8879C0.581289 25.1547 0.401115 25.2162 0.26098 25.2367V25.5034C0.26098 25.5034 2.48312 25.5034 2.76339 25.5034C3.80439 25.5034 4.44501 24.4366 4.44501 23.6774C4.44501 22.9799 4.0246 22.3644 3.30391 21.9335ZM2.16281 20.2716C2.4631 20.2716 2.72335 20.3742 2.86348 20.5383C3.06368 20.764 3.12373 21.0102 3.00362 21.3385C2.94356 21.4821 2.76339 21.7078 2.52316 21.7694C2.42306 21.7899 2.32296 21.8104 2.16281 21.8104H1.10179V20.2716H2.16281ZM2.40304 25.1547C2.38302 25.1547 1.08177 25.1547 1.08177 25.1547V22.1592C1.08177 22.1592 2.30295 22.1592 2.50314 22.1592C3.0837 22.1592 3.84443 22.8157 3.84443 23.6364C3.86445 24.4571 3.12373 25.1547 2.40304 25.1547Z" fill="#80879A"/>
<path d="M8.28873 24.9495L6.56707 19.6356L6.30682 20.4563L6.40692 20.7435L5.04561 25.0111C4.96553 25.2368 4.76534 25.2368 4.64522 25.2368V25.5035H5.74628V25.2368C5.64618 25.2368 5.40595 25.0726 5.48603 24.8059L5.58613 24.5392H7.64811L7.74821 24.8469C7.78825 24.97 7.70817 25.1752 7.52799 25.2368V25.5035H8.72915V25.2368C8.42886 25.2368 8.3688 25.1752 8.28873 24.9495ZM5.68622 24.1494L6.58709 21.318L7.50798 24.1494H5.68622Z" fill="#80879A"/>
<path d="M12.1924 19.9845H13.2134V20.2717C13.0332 20.2717 12.8931 20.4359 12.8931 20.5795V24.9291C12.8931 25.0522 12.9932 25.2368 13.2534 25.2368V25.5036H12.5528L9.79012 21.0719V24.9291C9.79012 25.1548 9.97029 25.2574 10.1705 25.2574V25.5241H9.1495V25.2368C9.32967 25.2368 9.44979 25.1137 9.44979 24.9496V20.5795C9.44979 20.4359 9.36971 20.2717 9.12948 20.2717C9.10946 20.2717 9.08944 20.2717 9.08944 20.2717V19.9845H9.83015L12.5528 24.3546V20.559C12.5528 20.3948 12.4327 20.2512 12.1924 20.2512V19.9845Z" fill="#80879A"/>
<path d="M17.0371 19.9433C16.8169 19.8818 16.5967 19.8612 16.3565 19.8612C14.795 19.8612 13.5338 21.1538 13.5338 22.7541C13.5338 24.3545 14.795 25.647 16.3565 25.647C17.0171 25.647 17.6177 25.4213 18.0981 25.0315L17.8379 24.7032C17.4175 25.052 16.897 25.2572 16.3164 25.2572C15.1553 25.2572 14.0943 24.1493 14.0943 22.7746C14.0943 21.4 15.1553 20.2921 16.2964 20.2921C16.857 20.2921 17.3975 20.4973 17.7979 20.8255L18.0581 20.4767L17.0171 19.5125L16.8169 19.7587L17.0371 19.9433Z" fill="#80879A"/>
<path d="M20.8408 19.8615C19.2593 19.8615 17.9781 21.154 17.9781 22.7543C17.9781 24.3547 19.2593 25.6472 20.8408 25.6472C22.4223 25.6472 23.7036 24.3547 23.7036 22.7543C23.7036 21.154 22.4223 19.8615 20.8408 19.8615ZM20.8408 25.2164C19.5596 25.2164 18.5186 24.1085 18.5186 22.7338C18.5186 21.3592 19.5596 20.2513 20.8408 20.2513C22.1221 20.2513 23.1631 21.3592 23.1631 22.7338C23.1631 24.1085 22.1221 25.2164 20.8408 25.2164Z" fill="#80879A"/>
<path d="M48.3873 19.9433C48.1671 19.8818 47.9469 19.8612 47.7066 19.8612C46.1451 19.8612 44.8839 21.1538 44.8839 22.7541C44.8839 24.3545 46.1451 25.647 47.7066 25.647C48.3673 25.647 48.9678 25.4213 49.4483 25.0315L49.1881 24.7032C48.7677 25.052 48.2471 25.2572 47.6666 25.2572C46.5055 25.2572 45.4445 24.1493 45.4445 22.7746C45.4445 21.4 46.5055 20.2921 47.6466 20.2921C48.2071 20.2921 48.7476 20.4973 49.148 20.8255L49.4083 20.4767L48.3673 19.5125L48.1671 19.7587L48.3873 19.9433Z" fill="#80879A"/>
<path d="M52.191 19.8615C50.6095 19.8615 49.3282 21.154 49.3282 22.7543C49.3282 24.3547 50.6095 25.6472 52.191 25.6472C53.7725 25.6472 55.0537 24.3547 55.0537 22.7543C55.0537 21.154 53.7725 19.8615 52.191 19.8615ZM52.191 25.2164C50.9098 25.2164 49.8688 24.1085 49.8688 22.7338C49.8688 21.3592 50.9098 20.2513 52.191 20.2513C53.4722 20.2513 54.5132 21.3592 54.5132 22.7338C54.4932 24.1085 53.4522 25.2164 52.191 25.2164Z" fill="#80879A"/>
<path d="M25.8857 21.4207H24.6845V21.6669C24.8246 21.6669 24.8847 21.79 24.8847 21.8515V23.5749C24.8847 23.6775 24.7846 23.7391 24.6845 23.7391V23.9853H25.9257C26.5263 23.9853 27.1269 23.4313 27.1269 22.6927C27.1269 21.9541 26.5263 21.4207 25.8857 21.4207ZM25.7255 23.7391H25.2651V21.6874H25.7255C26.226 21.6874 26.7465 22.0567 26.7465 22.6927C26.7465 23.3287 26.3061 23.7391 25.7255 23.7391Z" fill="#80879A"/>
<path d="M33.553 19.9845H34.3338V20.2717C34.1536 20.2717 33.9734 20.4359 34.0335 20.641L34.9143 24.9906C34.9544 25.1753 35.0945 25.2368 35.2547 25.2368V25.5036H34.0535V25.2368C34.3538 25.2368 34.4339 25.0112 34.4138 24.8881C34.3538 24.6418 33.5931 20.8257 33.5931 20.8257L32.6522 22.8774L31.6312 20.8257L30.9305 24.8881C30.9105 25.0317 31.0306 25.2368 31.2308 25.2368V25.5036H30.1297V25.2368C30.3299 25.2368 30.5301 25.2163 30.5701 24.9906L31.3109 20.6205C31.3509 20.4154 31.1707 20.2923 31.0506 20.2717V19.9845H31.7313L32.6922 21.9131L33.553 19.9845Z" fill="#80879A"/>
<path d="M35.6551 19.9845H38.0373L38.7981 20.4359L38.4778 20.6616L37.9973 20.3743H36.4959V21.79H36.9163C37.0764 21.79 37.2366 21.7079 37.2366 21.4617H37.4968V22.5696H37.2766C37.2766 22.4055 37.1765 22.2003 36.9763 22.2003H36.4959V25.1137H38.3376L39.0783 24.6829L39.4387 24.8881L38.3777 25.5241H35.6551V25.2368C35.7752 25.2368 35.9754 25.1548 35.9754 24.9291V20.559C35.9754 20.4359 35.8753 20.2512 35.6551 20.2512V19.9845Z" fill="#80879A"/>
<path d="M39.8591 20.2717H39.799V19.9845H40.9601V20.2717C40.82 20.3128 40.6999 20.4974 40.78 20.7026L41.3805 22.0772L42.0011 20.7231C42.0812 20.5179 41.9611 20.3128 41.801 20.2717V19.9845H42.902V20.2717C42.842 20.2717 42.7819 20.2717 42.7419 20.2717C42.5817 20.2717 42.5016 20.3538 42.4416 20.4769L41.5407 22.4465L42.6818 25.0522C42.7619 25.2368 42.922 25.2368 43.0622 25.2368V25.5036H41.861V25.2368C41.9811 25.2368 42.1213 25.0112 42.0412 24.8265L41.2805 23.0415L40.4997 24.7649C40.3996 25.0112 40.6198 25.2163 40.7199 25.2163V25.483H39.6389V25.2368C39.799 25.2368 39.9392 25.2368 40.0393 25.0522L41.1203 22.6722L40.1594 20.4769C40.0793 20.3333 39.9992 20.2717 39.8591 20.2717Z" fill="#80879A"/>
<path d="M43.3825 20.2717V19.9845H44.5836V20.2717C44.4235 20.2717 44.2433 20.3743 44.2433 20.5795V24.9086C44.2433 25.0522 44.3634 25.2368 44.5836 25.2368V25.5036H43.3825V25.2368C43.5827 25.2368 43.7228 25.1137 43.7228 24.9086C43.7228 24.9086 43.7228 20.7231 43.7228 20.5795C43.7228 20.4359 43.6227 20.2717 43.3825 20.2717Z" fill="#80879A"/>
<path d="M27.307 21.6669C27.4672 21.6669 27.5072 21.7695 27.5072 21.8515V23.5339C27.5072 23.657 27.4071 23.7186 27.307 23.7186V23.9648H28.7884L29.4691 23.5544L29.2489 23.4313L28.7484 23.7391H27.8475V22.426H28.1078C28.2079 22.426 28.288 22.5286 28.288 22.6106V22.6517H28.4481V21.9746H28.288V22.0157C28.288 22.1388 28.1879 22.2003 28.1078 22.2003H27.8475V21.6258H28.6283L28.9286 21.8105L29.1288 21.6669L28.6683 21.4001H27.307" fill="#80879A"/>
<path d="M37.8788 18.2352L36.5454 19.028L36.6861 19.2764L38.0195 18.4837L37.8788 18.2352Z" fill="#80879A"/>
</svg>
