<svg width="28" height="29" viewBox="0 0 28 29" fill="none" xmlns="http://www.w3.org/2000/svg">
<g clip-path="url(#clip0_1658_1055)">
<path d="M26.83 26.2086C26.83 27.1312 25.7617 28.2048 24.8591 28.2048H1.88804C0.985422 28.2048 0 27.2067 0 26.2925V3.05973C0 1.76809 1.22557 0.84549 2.25239 0.84549L24.8591 0.795166C25.77 0.795166 26.83 1.87713 26.83 2.79134V26.2086Z" fill="#4B4846"/>
<path d="M25.563 23.6757C25.563 25.1183 24.4037 26.2926 22.9794 26.2926H4.49651C3.0722 26.2926 1.91288 25.1183 1.91288 23.6757V5.20692C1.91288 3.76431 3.0722 2.59009 4.49651 2.59009H22.9877C24.412 2.59009 25.5713 3.76431 25.5713 5.20692V23.6757H25.563Z" fill="#4E585B"/>
<path d="M25.563 11.598C25.0082 12.42 17.456 13.1497 16.0317 13.1497H10.4836C9.05926 13.1497 3.52764 12.9232 1.90459 11.7742V5.20692C1.90459 3.76431 3.06391 2.59009 4.48822 2.59009H22.9794C24.4037 2.59009 25.563 3.76431 25.563 5.20692V11.598Z" fill="#787E80"/>
<path d="M25.4388 0.795166H2.83205C1.10963 0.795166 0.579659 1.49131 0.579659 2.78295V26.2925C0.579659 27.2151 1.56508 28.2048 2.46769 28.2048H25.4305C26.3414 28.2048 27.4014 27.1228 27.4014 26.2086V2.79134C27.4096 1.87713 26.3414 0.795166 25.4388 0.795166ZM26.0433 24.1454C26.0433 25.588 24.884 26.7622 23.4597 26.7622H4.04934C2.62503 26.7622 1.46571 25.588 1.46571 24.1454V4.82106C1.46571 3.37845 2.7244 2.12874 4.14871 2.12874H23.4597C24.884 2.12874 26.0433 3.30296 26.0433 4.74558V24.1454Z" fill="url(#paint0_linear_1658_1055)"/>
<path d="M23.468 2.12878H4.14871C2.7244 2.12878 1.46571 3.37849 1.46571 4.8211V24.1454C1.46571 25.588 2.62503 26.7622 4.04934 26.7622H23.468C24.8923 26.7622 26.0516 25.588 26.0516 24.1454V4.74562C26.0433 3.303 24.8923 2.12878 23.468 2.12878ZM25.563 23.6757C25.563 25.1183 24.4037 26.2925 22.9794 26.2925H4.48823C3.06392 26.2925 1.9046 25.1183 1.9046 23.6757V5.20692C1.9046 3.7643 3.06392 2.59008 4.48823 2.59008H22.9794C24.4037 2.59008 25.563 3.7643 25.563 5.20692V23.6757Z" fill="url(#paint1_linear_1658_1055)"/>
<path d="M10.4753 18.8027C10.5664 18.744 10.674 18.702 10.8065 18.702C11.0963 18.702 11.2123 18.853 11.2123 19.1466V19.5911C11.2123 19.7169 11.2123 19.7672 11.2206 19.8008H11.0467V19.6666C11.0053 19.7337 10.9224 19.8343 10.7568 19.8343C10.5415 19.8343 10.4256 19.7337 10.4256 19.4988C10.4256 19.2304 10.6823 19.1466 10.8728 19.1466C10.9473 19.1466 10.9639 19.1466 11.0384 19.1549C11.0384 18.9704 10.9721 18.8782 10.79 18.8782C10.6823 18.8782 10.5747 18.9201 10.5001 18.9872L10.4753 18.8027ZM11.0301 19.2891C10.9887 19.2891 10.9473 19.2807 10.9142 19.2807C10.8148 19.2807 10.5664 19.2975 10.5664 19.4904C10.5664 19.6079 10.6657 19.6666 10.7568 19.6666C10.939 19.6666 11.0384 19.5408 11.0384 19.3814V19.2891H11.0301Z" fill="white"/>
<path d="M17.3981 18.8111C17.4892 18.7524 17.5968 18.7104 17.7293 18.7104C18.0191 18.7104 18.1351 18.8614 18.1351 19.155V19.5995C18.1351 19.7253 18.1351 19.7756 18.1434 19.8092H17.9695V19.6666C17.9281 19.7337 17.8452 19.8343 17.6796 19.8343C17.4643 19.8343 17.3484 19.7337 17.3484 19.4989C17.3484 19.2305 17.6051 19.1466 17.7956 19.1466C17.8701 19.1466 17.8867 19.1466 17.9612 19.155C17.9612 18.9705 17.8949 18.8782 17.7128 18.8782C17.6051 18.8782 17.4975 18.9201 17.4229 18.9872L17.3981 18.8111ZM17.9529 19.2892C17.9115 19.2892 17.8701 19.2808 17.837 19.2808C17.7376 19.2808 17.4892 19.2976 17.4892 19.4905C17.4892 19.6079 17.5885 19.6666 17.6796 19.6666C17.8618 19.6666 17.9612 19.5408 17.9612 19.3814V19.2892H17.9529Z" fill="white"/>
<path d="M22.5736 18.8111C22.6647 18.7524 22.7724 18.7104 22.9049 18.7104C23.1947 18.7104 23.3106 18.8614 23.3106 19.155V19.5995C23.3106 19.7253 23.3106 19.7756 23.3189 19.8092H23.145V19.6666C23.1036 19.7337 23.0208 19.8343 22.8552 19.8343C22.6399 19.8343 22.5239 19.7337 22.5239 19.4989C22.5239 19.2305 22.7806 19.1466 22.9711 19.1466C23.0456 19.1466 23.0622 19.1466 23.1367 19.155C23.1367 18.9705 23.0705 18.8782 22.8883 18.8782C22.7806 18.8782 22.673 18.9201 22.5985 18.9872L22.5736 18.8111ZM23.1284 19.2892C23.087 19.2892 23.0456 19.2808 23.0125 19.2808C22.9131 19.2808 22.6647 19.2976 22.6647 19.4905C22.6647 19.6079 22.7641 19.6666 22.8552 19.6666C23.0373 19.6666 23.1367 19.5408 23.1367 19.3814V19.2892H23.1284Z" fill="white"/>
<path d="M4.27292 10.0044H7.16294C7.94962 10.0044 8.61209 10.2309 8.9516 10.6922C9.15034 10.9605 9.24143 11.2793 9.24143 11.6315C9.24143 12.0425 8.98473 12.4535 8.74458 12.7135C8.62037 12.8561 8.33882 12.9819 8.10696 13.0993C8.44647 13.2251 8.70318 13.3761 8.87708 13.5354C9.17519 13.8206 9.46502 14.1561 9.46502 14.6593C9.46502 15.0871 9.33252 15.4645 9.05925 15.8084C8.65349 16.32 8.00759 16.58 7.12153 16.58H4.27292V10.0044ZM6.82342 12.789C7.21262 12.789 7.51073 12.7386 7.72604 12.6296C8.06555 12.4619 8.3057 12.1683 8.3057 11.7406C8.3057 11.3128 8.04899 10.9689 7.69291 10.818C7.49417 10.7341 7.18778 10.6922 6.7903 10.6922H5.15897V12.789H6.82342ZM7.12981 15.8755C7.69291 15.8755 8.09039 15.6574 8.33054 15.3387C8.47959 15.1374 8.55412 14.8942 8.55412 14.6174C8.55412 14.1393 8.33882 13.8122 7.89993 13.6445C7.66807 13.5522 7.36168 13.4264 6.98076 13.4264H5.15897V15.8755H7.12981Z" fill="white"/>
<path d="M11.3199 11.816V14.8438C11.3199 15.0955 11.3613 15.3051 11.4359 15.4645C11.5766 15.7581 11.8416 15.909 12.2308 15.909C12.7856 15.909 13.5558 15.5064 13.5558 15.2297C13.5558 14.8522 13.5475 14.4748 13.5475 13.9967V11.8244H14.4253V16.5549H13.5972L13.6055 15.7748C13.4978 15.9594 13.3487 16.1187 13.1914 16.2529C12.885 16.5129 12.5124 16.6387 12.0735 16.6387C11.3945 16.6387 10.9307 16.4039 10.6823 15.9342C10.5498 15.6826 10.4836 15.3471 10.4836 14.9277V11.8244H11.3199V11.816Z" fill="white"/>
<path d="M16.0566 11.7489H16.835V12.6044C16.9012 12.4367 17.1414 12.2354 17.3898 12.0005C17.6382 11.7657 17.9281 11.6399 18.251 11.6399C18.2676 11.6399 18.2924 11.6399 18.3255 11.6483C18.3587 11.6483 18.4249 11.6567 18.516 11.6651V12.5373C18.4663 12.5289 18.4249 12.5206 18.3835 12.5206C18.3421 12.5206 18.3007 12.5122 18.251 12.5122C17.837 12.5122 17.5223 12.6464 17.2987 12.9148C17.0751 13.1832 16.9592 13.4935 16.9592 13.8457V16.58H16.0649V11.7489H16.0566Z" fill="white"/>
<path d="M22.8303 12.1935C22.3749 11.7826 21.8201 11.5729 21.1659 11.5729C20.4289 11.5729 19.8492 11.8077 19.4103 12.2858C18.9714 12.7639 18.7561 13.4013 18.7561 14.2065C18.7561 14.9613 18.9632 15.5568 19.3772 16.0014C19.7912 16.4459 20.3461 16.6723 21.0499 16.6723C21.8946 16.6723 22.5157 16.4207 22.9131 15.9175C23.3106 15.4143 23.5094 14.7768 23.5094 14.0052C23.5094 13.2084 23.2858 12.6045 22.8303 12.1935ZM22.2921 15.3807C22.085 15.7833 21.6958 15.9846 21.1245 15.9846C20.6111 15.9846 20.2301 15.8168 19.9983 15.473C19.7581 15.1291 19.6422 14.7097 19.6422 14.1981C19.6422 13.6697 19.7581 13.2168 19.9983 12.8394C20.2384 12.4619 20.6111 12.2774 21.1327 12.2774C21.7207 12.2774 22.1347 12.4955 22.3749 12.94C22.5239 13.2168 22.5985 13.5858 22.5985 14.0303C22.6067 14.5252 22.5074 14.9781 22.2921 15.3807Z" fill="white"/>
<path d="M22.4411 9.61853L21.0417 11.1953H20.4123L21.4309 9.61853H22.4411Z" fill="white"/>
<path d="M3.73466 18.3582C3.94168 18.3582 4.09902 18.4169 4.20667 18.5343C4.31432 18.6517 4.37229 18.8278 4.37229 19.0627C4.37229 19.1885 4.35573 19.2975 4.33088 19.3898C4.30604 19.4821 4.26464 19.5659 4.21495 19.633C4.16527 19.7001 4.09902 19.7504 4.01621 19.784C3.9334 19.8175 3.84231 19.8343 3.72638 19.8343H3.27094V18.3665H3.73466V18.3582ZM3.75122 19.6666C3.76779 19.6666 3.79263 19.6666 3.82575 19.6582C3.85888 19.6582 3.88372 19.6498 3.92512 19.633C3.95825 19.6162 3.99137 19.5995 4.02449 19.5743C4.05762 19.5491 4.09074 19.5156 4.11558 19.4737C4.14043 19.4317 4.16527 19.3814 4.18183 19.3143C4.19839 19.2472 4.20667 19.1717 4.20667 19.0795C4.20667 18.9956 4.19839 18.9117 4.18183 18.8446C4.16527 18.7775 4.14042 18.7188 4.1073 18.6685C4.07418 18.6182 4.02449 18.5846 3.96653 18.5594C3.90856 18.5343 3.84231 18.5175 3.75951 18.5175H3.46139V19.6666H3.75122Z" fill="white"/>
<path d="M4.4137 19.2807C4.4137 18.9704 4.61244 18.7439 4.88571 18.7439C5.14241 18.7439 5.29147 18.9284 5.29147 19.2136C5.29147 19.2387 5.29147 19.2639 5.28319 19.2891H4.60416C4.61244 19.4988 4.69525 19.6749 4.91055 19.6749C5.05132 19.6749 5.14241 19.6162 5.1921 19.5826L5.25834 19.7168C5.20038 19.7504 5.09273 19.8259 4.90227 19.8259C4.58759 19.8259 4.4137 19.591 4.4137 19.2807ZM5.11757 19.1549C5.10929 19.0123 5.05132 18.8865 4.88571 18.8865C4.72837 18.8865 4.64556 18.9955 4.62072 19.1549H5.11757Z" fill="white"/>
<path d="M12.3385 19.2807C12.3385 18.9704 12.5372 18.7439 12.8105 18.7439C13.0672 18.7439 13.2162 18.9284 13.2162 19.2136C13.2162 19.2387 13.2162 19.2639 13.208 19.2891H12.5289C12.5372 19.4988 12.62 19.6749 12.8353 19.6749C12.9761 19.6749 13.0672 19.6162 13.1169 19.5826L13.1831 19.7168C13.1252 19.7504 13.0175 19.8259 12.827 19.8259C12.5124 19.8259 12.3385 19.591 12.3385 19.2807ZM13.0424 19.1549C13.0341 19.0123 12.9761 18.8865 12.8105 18.8865C12.6532 18.8865 12.5703 18.9955 12.5455 19.1549H13.0424Z" fill="white"/>
<path d="M20.8512 19.2807C20.8512 18.9704 21.0499 18.7439 21.3232 18.7439C21.5799 18.7439 21.729 18.9284 21.729 19.2136C21.729 19.2387 21.729 19.2639 21.7207 19.2891H21.0417C21.0499 19.4988 21.1328 19.6749 21.3481 19.6749C21.4888 19.6749 21.5799 19.6162 21.6296 19.5826L21.6959 19.7168C21.6379 19.7504 21.5302 19.8259 21.3398 19.8259C21.0168 19.8259 20.8512 19.591 20.8512 19.2807ZM21.5468 19.1549C21.5385 19.0123 21.4805 18.8865 21.3149 18.8865C21.1576 18.8865 21.0748 18.9955 21.0499 19.1549H21.5468Z" fill="white"/>
<path d="M6.07815 18.3497H6.83999V18.5175H6.26033V18.9704H6.79858V19.1381H6.26033V19.6665H6.87311V19.8175H6.07815V18.3497Z" fill="white"/>
<path d="M7.06357 18.7608H7.25403V18.9117C7.34512 18.8027 7.46933 18.7356 7.60183 18.7356C7.83369 18.7356 7.9165 18.8866 7.9165 19.0711V19.8259H7.72604V19.113C7.72604 18.9872 7.68464 18.9033 7.54386 18.9033C7.42793 18.9033 7.32028 18.9872 7.24575 19.0879V19.8259H7.05529V18.7608H7.06357Z" fill="white"/>
<path d="M16.2884 18.7608H16.4789V18.9117C16.57 18.8027 16.6942 18.7356 16.8267 18.7356C17.0586 18.7356 17.1414 18.8866 17.1414 19.0711V19.8259H16.9509V19.113C16.9509 18.9872 16.9095 18.9033 16.7687 18.9033C16.6528 18.9033 16.5452 18.9872 16.4706 19.0879V19.8259H16.2802V18.7608H16.2884Z" fill="white"/>
<path d="M18.4001 18.7608H18.5905V18.9117C18.6816 18.8027 18.8058 18.7356 18.9383 18.7356C19.1702 18.7356 19.253 18.8866 19.253 19.0711V19.8259H19.0625V19.113C19.0625 18.9872 19.0211 18.9033 18.8804 18.9033C18.7644 18.9033 18.6568 18.9872 18.5822 19.0879V19.8259H18.3918V18.7608H18.4001Z" fill="white"/>
<path d="M8.66178 18.7607V18.9116H8.38851V19.5742C8.38851 19.591 8.38851 19.6078 8.39679 19.6246C8.39679 19.633 8.40507 19.6497 8.41335 19.6497C8.42163 19.6581 8.4382 19.6581 8.44648 19.6665C8.46304 19.6665 8.4796 19.6665 8.50444 19.6665H8.6535V19.8175H8.45476C8.41335 19.8175 8.38023 19.8175 8.34711 19.8091C8.31398 19.8007 8.29742 19.7923 8.27258 19.7755C8.25602 19.7588 8.23946 19.7336 8.23118 19.7084C8.22289 19.6749 8.21461 19.6413 8.21461 19.591V18.9116H8.049V18.7607H8.21461V18.3413H8.37195V18.7607H8.66178Z" fill="white"/>
<path d="M8.82739 18.4337C8.82739 18.3666 8.87708 18.3079 8.95161 18.3079C9.01785 18.3079 9.07582 18.3666 9.07582 18.4337C9.07582 18.5008 9.02613 18.5595 8.95161 18.5595C8.88536 18.5595 8.82739 18.5008 8.82739 18.4337ZM8.86052 18.744H9.03441V19.8176H8.86052V18.744Z" fill="white"/>
<path d="M15.7916 18.4337C15.7916 18.3666 15.8413 18.3079 15.9158 18.3079C15.9821 18.3079 16.04 18.3666 16.04 18.4337C16.04 18.5008 15.9903 18.5595 15.9158 18.5595C15.8413 18.5595 15.7916 18.5008 15.7916 18.4337ZM15.8247 18.744H15.9986V19.8176H15.8247V18.744Z" fill="white"/>
<path d="M20.4123 18.4337C20.4123 18.3666 20.462 18.3079 20.5365 18.3079C20.6028 18.3079 20.6607 18.3666 20.6607 18.4337C20.6607 18.5008 20.6111 18.5595 20.5365 18.5595C20.4703 18.5595 20.4123 18.5008 20.4123 18.4337ZM20.4454 18.744H20.6193V19.8176H20.4454V18.744Z" fill="white"/>
<path d="M10.0447 19.8092V19.6666C10.0198 19.7253 9.97843 19.7672 9.92047 19.7924C9.8625 19.8176 9.80454 19.8343 9.73829 19.8343C9.66376 19.8343 9.59751 19.8176 9.53955 19.7924C9.48158 19.7589 9.44018 19.7253 9.39877 19.675C9.36565 19.6247 9.33253 19.5659 9.31597 19.4989C9.2994 19.4318 9.29112 19.3563 9.29112 19.2808C9.29112 19.2053 9.2994 19.1298 9.31597 19.0627C9.33253 18.9956 9.35737 18.9369 9.39877 18.8866C9.4319 18.8363 9.48158 18.7943 9.53955 18.7692C9.59751 18.7356 9.65548 18.7272 9.73001 18.7272C9.75485 18.7272 9.77969 18.7272 9.81282 18.7356C9.83766 18.744 9.87078 18.7524 9.89563 18.7608C9.92047 18.7775 9.95359 18.7943 9.97843 18.8111C10.0033 18.8363 10.0281 18.8614 10.0447 18.8866V18.2491H10.202V19.8092H10.0447ZM9.4733 19.4318C9.48158 19.4821 9.50642 19.524 9.53127 19.5576C9.55611 19.5911 9.58923 19.6247 9.62236 19.6498C9.66376 19.675 9.70517 19.6834 9.75485 19.6834C9.80454 19.6834 9.85422 19.675 9.88734 19.6498C9.92875 19.6247 9.95359 19.5995 9.97843 19.5576C10.0033 19.5156 10.0198 19.4737 10.0281 19.4318C10.0364 19.3814 10.0447 19.3311 10.0447 19.2892C10.0447 19.2388 10.0364 19.1885 10.0281 19.1382C10.0198 19.0879 9.995 19.0459 9.97843 19.0124C9.95359 18.9788 9.92047 18.9453 9.88734 18.9201C9.84594 18.895 9.80454 18.8866 9.74657 18.8866C9.69688 18.8866 9.6472 18.895 9.61408 18.9201C9.57267 18.9453 9.54783 18.9705 9.52299 19.0124C9.49814 19.0543 9.48158 19.0963 9.4733 19.1466C9.46502 19.1969 9.45674 19.2472 9.45674 19.2976C9.45674 19.3311 9.45674 19.3814 9.4733 19.4318Z" fill="white"/>
<path d="M12.0569 19.8092V19.6666C12.0321 19.7253 11.9907 19.7672 11.9327 19.7924C11.8747 19.8176 11.8168 19.8343 11.7505 19.8343C11.676 19.8343 11.6098 19.8176 11.5518 19.7924C11.4938 19.7589 11.4524 19.7253 11.411 19.675C11.3779 19.6247 11.3448 19.5659 11.3282 19.4989C11.3116 19.4318 11.3034 19.3563 11.3034 19.2808C11.3034 19.2053 11.3116 19.1298 11.3282 19.0627C11.3448 18.9956 11.3696 18.9369 11.411 18.8866C11.4441 18.8363 11.4938 18.7943 11.5518 18.7692C11.6098 18.7356 11.6677 18.7272 11.7423 18.7272C11.7671 18.7272 11.7919 18.7272 11.8251 18.7356C11.8499 18.744 11.883 18.7524 11.9079 18.7608C11.9327 18.7775 11.9658 18.7943 11.9907 18.8111C12.0155 18.8363 12.0404 18.8614 12.0569 18.8866V18.2491H12.2143V19.8092H12.0569ZM11.4855 19.4318C11.4938 19.4821 11.5187 19.524 11.5435 19.5576C11.5684 19.5911 11.6015 19.6247 11.6346 19.6498C11.676 19.675 11.7174 19.6834 11.7671 19.6834C11.8168 19.6834 11.8665 19.675 11.8996 19.6498C11.941 19.6247 11.9658 19.5995 11.9907 19.5576C12.0155 19.5156 12.0321 19.4737 12.0404 19.4318C12.0486 19.3814 12.0569 19.3311 12.0569 19.2892C12.0569 19.2388 12.0486 19.1885 12.0404 19.1382C12.0321 19.0879 12.0072 19.0459 11.9907 19.0124C11.9658 18.9788 11.9327 18.9453 11.8996 18.9201C11.8582 18.895 11.8168 18.8866 11.7588 18.8866C11.7091 18.8866 11.6594 18.895 11.6263 18.9201C11.5849 18.9453 11.5601 18.9705 11.5352 19.0124C11.5104 19.0543 11.4938 19.0963 11.4855 19.1466C11.4773 19.1969 11.469 19.2472 11.469 19.2976C11.469 19.3311 11.4773 19.3814 11.4855 19.4318Z" fill="white"/>
<path d="M13.3156 19.7336L13.3901 19.5994C13.4233 19.6246 13.5144 19.6833 13.6386 19.6833C13.7545 19.6833 13.829 19.6329 13.829 19.5491C13.829 19.4568 13.7462 19.4233 13.6055 19.3562C13.4564 19.2891 13.3405 19.2136 13.3405 19.0375C13.3405 18.8697 13.4647 18.7439 13.6634 18.7439C13.829 18.7439 13.9284 18.811 13.9615 18.8362L13.887 18.9704C13.8539 18.9452 13.7793 18.8949 13.6717 18.8949C13.564 18.8949 13.5144 18.9452 13.5144 19.0291C13.5144 19.1213 13.5972 19.1549 13.7048 19.2052C13.8622 19.2723 14.0029 19.3478 14.0029 19.5239C14.0029 19.7168 13.8622 19.8342 13.6386 19.8342C13.4895 19.8259 13.3736 19.7755 13.3156 19.7336Z" fill="white"/>
<path d="M23.5094 19.7336L23.5839 19.5994C23.617 19.6246 23.7081 19.6833 23.8323 19.6833C23.9482 19.6833 24.0228 19.6329 24.0228 19.5491C24.0228 19.4568 23.94 19.4233 23.7992 19.3562C23.6501 19.2891 23.5342 19.2136 23.5342 19.0375C23.5342 18.8697 23.6584 18.7439 23.8572 18.7439C24.0228 18.7439 24.1221 18.811 24.1553 18.8362L24.0807 18.9704C24.0476 18.9452 23.9731 18.8949 23.8654 18.8949C23.7578 18.8949 23.7081 18.9452 23.7081 19.0291C23.7081 19.1213 23.7909 19.1549 23.8986 19.2052C24.0559 19.2723 24.1967 19.3478 24.1967 19.5239C24.1967 19.7168 24.0559 19.8342 23.8323 19.8342C23.675 19.8259 23.5673 19.7755 23.5094 19.7336Z" fill="white"/>
<path d="M14.8807 18.3246H15.6094V18.4923H15.0712V18.9872H15.5929V19.1549H15.0712V19.8175H14.8807V18.3246Z" fill="white"/>
<path d="M20.0148 18.8949C19.9734 18.853 19.9237 18.8362 19.8575 18.8362C19.7995 18.8362 19.7498 18.8446 19.7167 18.8698C19.6753 18.8949 19.6505 18.9285 19.6256 18.962C19.6008 19.0039 19.5842 19.0459 19.5759 19.0962C19.5677 19.1465 19.5594 19.2052 19.5594 19.2556C19.5594 19.3059 19.5677 19.3562 19.5759 19.4065C19.5842 19.4569 19.6008 19.4988 19.6256 19.5323C19.6505 19.5659 19.6753 19.5994 19.7167 19.6246C19.7498 19.6498 19.7995 19.6582 19.8492 19.6582C19.9237 19.6582 19.99 19.633 20.0314 19.5911C20.0728 19.5407 20.1059 19.482 20.1142 19.3898H20.2798C20.2633 19.524 20.2219 19.633 20.1473 19.7085C20.0728 19.784 19.9817 19.8175 19.8575 19.8175C19.783 19.8175 19.7167 19.8007 19.6588 19.7756C19.6008 19.7504 19.5511 19.7085 19.518 19.6582C19.4766 19.6078 19.4517 19.5491 19.4352 19.482C19.4186 19.4149 19.4103 19.3394 19.4103 19.2556C19.4103 19.1717 19.4186 19.0962 19.4352 19.0207C19.4517 18.9452 19.4849 18.8865 19.518 18.8362C19.5594 18.7859 19.6008 18.7439 19.6588 18.7104C19.7167 18.6768 19.783 18.6685 19.8575 18.6685C19.9155 18.6685 19.9651 18.6768 20.0148 18.6936C20.0645 18.7104 20.1059 18.7356 20.139 18.7607C20.1722 18.7943 20.2053 18.8278 20.2301 18.8781C20.255 18.9285 20.2715 18.9788 20.2715 19.0459H20.1059C20.0811 18.9872 20.0562 18.9368 20.0148 18.8949Z" fill="white"/>
<path d="M21.9526 18.7439H22.1099V18.9284C22.1265 18.8949 22.1513 18.8529 22.2093 18.7942C22.2589 18.7439 22.3169 18.7188 22.3832 18.7188C22.3832 18.7188 22.3914 18.7188 22.3997 18.7188C22.408 18.7188 22.4163 18.7188 22.4411 18.7188V18.9117C22.4328 18.9117 22.4246 18.9117 22.4163 18.9117C22.408 18.9117 22.3997 18.9117 22.3914 18.9117C22.3086 18.9117 22.2424 18.9368 22.201 18.9955C22.1596 19.0542 22.1347 19.1213 22.1347 19.1968V19.8091H21.9691V18.7439H21.9526Z" fill="white"/>
<path d="M24.8012 20.0775H2.98939V20.3207H24.8012V20.0775Z" fill="#ACABAB"/>
</g>
<defs>
<linearGradient id="paint0_linear_1658_1055" x1="13.9962" y1="28.2047" x2="13.9962" y2="0.795166" gradientUnits="userSpaceOnUse">
<stop stop-color="#5C5B5A"/>
<stop offset="0.0701929" stop-color="#D3D0D1"/>
<stop offset="0.1569" stop-color="white"/>
<stop offset="0.329" stop-color="white"/>
<stop offset="0.4049" stop-color="#CECBCC"/>
<stop offset="0.5021" stop-color="#999A9B"/>
<stop offset="0.6568" stop-color="white"/>
<stop offset="0.81" stop-color="#999A9B"/>
<stop offset="1" stop-color="#CECBCC"/>
</linearGradient>
<linearGradient id="paint1_linear_1658_1055" x1="13.7564" y1="2.12849" x2="13.7564" y2="26.7579" gradientUnits="userSpaceOnUse">
<stop stop-color="#5C5B5A"/>
<stop offset="0.1698" stop-color="white"/>
<stop offset="0.396" stop-color="#D3D0D1"/>
<stop offset="0.5443" stop-color="white"/>
<stop offset="0.6825" stop-color="#CECBCC"/>
<stop offset="0.8363" stop-color="#5C5B5A"/>
<stop offset="1" stop-color="#8C8C8C"/>
</linearGradient>
<clipPath id="clip0_1658_1055">
<rect width="27.4096" height="27.4096" fill="white" transform="translate(0 0.795166)"/>
</clipPath>
</defs>
</svg>
