<svg width="41" height="24" viewBox="0 0 41 24" fill="none" xmlns="http://www.w3.org/2000/svg">
<g clip-path="url(#clip0_1658_1093)">
<path d="M41 12C41 18.6223 35.6226 24 29.0006 24C22.3668 24 17.0011 18.6223 17.0011 12C17.0011 5.37769 22.3786 0 29.0006 0C35.6343 0 41 5.37769 41 12Z" fill="url(#paint0_radial_1658_1093)"/>
<path d="M23.9989 12C23.9989 18.6223 18.6214 24 11.9994 24C5.37743 24 0 18.6341 0 12C0 5.37769 5.37743 0 11.9994 0C18.6332 0 23.9989 5.37769 23.9989 12Z" fill="url(#paint1_radial_1658_1093)"/>
<path d="M29.5524 12.364C29.5524 17.2837 25.5604 21.2759 20.6409 21.2759C15.7214 21.2759 11.7294 17.2837 11.7294 12.364C11.7294 7.4442 15.7214 3.45203 20.6409 3.45203C25.5604 3.45203 29.5524 7.4442 29.5524 12.364Z" fill="url(#paint2_radial_1658_1093)"/>
<path d="M35.2116 13.9608V13.3268H32.8164V12.5636H34.5189V11.9295H32.8164V11.4951H35.2116V10.7671H31.3605V13.9608H35.2116Z" fill="white"/>
<path d="M37.2311 13.9608V12.5636H38.9453V11.9295H37.2311V11.4951H39.638V10.7671H35.7752V13.9608H37.2311Z" fill="white"/>
<path d="M26.6523 12.8806H28.0026C28.0261 13.0332 28.0965 13.0802 28.1787 13.1624C28.3196 13.2915 28.5309 13.3502 28.801 13.3502C29.0006 13.3502 29.1649 13.315 29.2706 13.2563C29.3763 13.1976 29.435 13.1154 29.435 13.0332C29.435 12.951 29.388 12.8806 29.2824 12.8219C29.1767 12.7632 28.9419 12.7044 28.5544 12.6457C27.9321 12.5518 27.486 12.4226 27.2277 12.27C26.9576 12.1174 26.8285 11.9178 26.8285 11.6712C26.8285 11.5068 26.8989 11.3659 27.0281 11.225C27.169 11.0841 27.3686 10.9784 27.6503 10.8962C27.9204 10.814 28.2961 10.7788 28.7775 10.7788C29.3645 10.7788 29.8107 10.8493 30.116 11.0019C30.4212 11.1545 30.6091 11.3776 30.6678 11.7064H29.3293C29.2941 11.5655 29.2237 11.5185 29.1062 11.4598C28.9888 11.4011 28.8362 11.3659 28.6366 11.3659C28.4722 11.3659 28.3431 11.3894 28.2609 11.4363C28.1787 11.4833 28.1317 11.542 28.1317 11.6125C28.1317 11.6594 28.167 11.7064 28.2374 11.7416C28.3078 11.7769 28.4605 11.8238 28.7188 11.859C29.3411 11.953 29.7872 12.0352 30.0455 12.1291C30.3156 12.223 30.5034 12.3405 30.6326 12.4696C30.75 12.6105 30.8204 12.7632 30.8204 12.9275C30.8204 13.1271 30.7383 13.3033 30.5739 13.4794C30.4095 13.6438 30.1864 13.7729 29.8929 13.8551C29.5994 13.9373 29.2354 13.9843 28.7892 13.9843C28.0143 13.9843 27.4625 13.8786 27.169 13.679C26.8519 13.4559 26.6876 13.1976 26.6523 12.8806Z" fill="white"/>
<path d="M5.30699 12.7867H6.73941C6.65722 13.0215 6.51632 13.2916 6.32847 13.4442C6.14061 13.5968 5.90579 13.7143 5.63574 13.7964C5.35395 13.8786 5.01346 13.9139 4.57904 13.9139C4.06243 13.9139 3.63975 13.8669 3.311 13.773C2.98225 13.679 2.70046 13.5029 2.46564 13.2681C2.23081 13.0215 2.1134 12.7162 2.1134 12.3405C2.1134 11.8356 2.32474 11.4481 2.74742 11.178C3.1701 10.908 3.75716 10.7671 4.52033 10.7671C5.11913 10.7671 5.58878 10.8493 5.94101 11.0019C6.2815 11.1546 6.56329 11.5538 6.72766 11.8825L5.40092 11.906C5.35395 11.8121 5.30699 11.7416 5.26002 11.7064C5.17784 11.636 5.07217 11.5773 4.95475 11.542C4.83734 11.5068 4.69645 11.4833 4.55556 11.4833C4.22681 11.4833 3.9685 11.5655 3.79238 11.7416C3.66323 11.8708 3.59278 12.0704 3.59278 12.3405C3.59278 12.681 3.67497 12.9041 3.82761 13.0332C3.99198 13.1624 4.21506 13.2211 4.50859 13.2211C4.79038 13.2211 5.0252 13.1976 5.14261 13.0685C5.29525 12.8923 5.23654 12.9863 5.30699 12.7867Z" fill="white"/>
<path d="M7.10338 12.3522C7.10338 11.8473 7.30298 11.4481 7.71392 11.1781C8.12486 10.8963 8.68843 10.7554 9.41638 10.7554C10.1678 10.7554 10.7314 10.8963 11.1423 11.1663C11.5415 11.4481 11.7529 11.8356 11.7529 12.3288C11.7529 12.6927 11.6589 12.9863 11.4946 13.2211C11.3184 13.456 11.0601 13.6321 10.7314 13.7612C10.4026 13.8904 9.97995 13.9491 9.48683 13.9491C8.98196 13.9491 8.55928 13.8904 8.23053 13.7847C7.90177 13.6791 7.63173 13.5029 7.42039 13.2564C7.20905 13.0215 7.10338 12.7162 7.10338 12.3522ZM8.48883 12.3522C8.48883 12.6693 8.57102 12.8924 8.73539 13.0215C8.89977 13.1624 9.13459 13.2211 9.41638 13.2211C9.70991 13.2211 9.94473 13.1507 10.1091 13.0215C10.2735 12.8924 10.3557 12.6458 10.3557 12.3053C10.3557 12.0117 10.2735 11.8004 10.0974 11.6712C9.93299 11.5421 9.69817 11.4716 9.40464 11.4716C9.12285 11.4716 8.89977 11.5421 8.73539 11.6712C8.57102 11.8121 8.48883 12.047 8.48883 12.3522Z" fill="white"/>
<path d="M12.4338 10.8024H13.6549L15.2517 12.5519V10.8024H16.4845V13.9491H15.2517L13.6667 12.2114V13.9491H12.4338V10.8024Z" fill="white"/>
<path d="M17.2242 10.7906H19.3259C19.7368 10.7906 20.0773 10.8259 20.3356 10.9081C20.5939 10.9903 20.8053 11.0959 20.9696 11.2486C21.134 11.3895 21.2514 11.5656 21.3336 11.7535C21.4041 11.9413 21.451 12.1527 21.451 12.364C21.451 12.7045 21.3923 12.9629 21.2867 13.1507C21.1692 13.3386 21.0166 13.4912 20.817 13.6204C20.6174 13.7496 20.4061 13.8317 20.183 13.867C19.8777 13.9257 19.5959 13.9492 19.3376 13.9492H17.236V10.7906H17.2242ZM18.6449 11.5069V13.2329H18.9971C19.2907 13.2329 19.502 13.2094 19.6312 13.1625C19.7603 13.1155 19.8542 13.0333 19.9247 12.9276C19.9951 12.8102 20.0304 12.6341 20.0304 12.3758C20.0304 12.0353 19.9482 11.8122 19.7955 11.683C19.6429 11.5539 19.3729 11.4952 19.0089 11.4952H18.6449V11.5069Z" fill="white"/>
<path d="M24.7503 10.7906H26.0536V12.6458C26.0536 12.8337 26.0183 12.9981 25.9361 13.1625C25.854 13.3269 25.7365 13.4678 25.5722 13.5969C25.4078 13.7143 25.2317 13.8083 25.0438 13.8552C24.7855 13.9257 24.4802 13.9609 24.128 13.9609C23.9167 13.9609 23.6936 13.9492 23.447 13.9257C23.2005 13.9022 23.0009 13.867 22.8365 13.7965C22.6721 13.7378 22.5195 13.6439 22.3903 13.5265C22.2494 13.409 22.1555 13.2916 22.1085 13.1625C22.0264 12.9629 21.9911 12.7867 21.9911 12.6341V10.7906H23.2944V12.6811C23.2944 12.8454 23.3648 12.9863 23.494 13.0803C23.6231 13.1742 23.7993 13.2212 24.0341 13.2212C24.2572 13.2212 24.445 13.1742 24.5742 13.0803C24.7033 12.9863 24.762 12.8572 24.762 12.6811V10.7906H24.7503Z" fill="white"/>
</g>
<defs>
<radialGradient id="paint0_radial_1658_1093" cx="0" cy="0" r="1" gradientUnits="userSpaceOnUse" gradientTransform="translate(33.1399 3.36275) scale(15.9368 15.9376)">
<stop stop-color="white"/>
<stop offset="1" stop-color="#28903B"/>
</radialGradient>
<radialGradient id="paint1_radial_1658_1093" cx="0" cy="0" r="1" gradientUnits="userSpaceOnUse" gradientTransform="translate(16.138 3.36275) scale(15.9368 15.9376)">
<stop stop-color="white"/>
<stop offset="1" stop-color="#28903B"/>
</radialGradient>
<radialGradient id="paint2_radial_1658_1093" cx="0" cy="0" r="1" gradientUnits="userSpaceOnUse" gradientTransform="translate(23.71 5.95228) scale(11.8314 11.8319)">
<stop stop-color="white"/>
<stop offset="1" stop-color="#28903B"/>
</radialGradient>
<clipPath id="clip0_1658_1093">
<rect width="41" height="24" fill="white"/>
</clipPath>
</defs>
</svg>
