<svg width="48" height="48" viewBox="0 0 48 48" fill="none" xmlns="http://www.w3.org/2000/svg">
<path d="M39 47.4H8.5C3.8 47.4 0 43.6 0 39V8.5C0 3.8 3.8 0 8.5 0H39C43.7 0 47.5 3.8 47.5 8.5V39C47.4 43.6 43.6 47.4 39 47.4Z" fill="#384967"/>
<path d="M20.1 38H25.9V23.6H29.9L30.3 18.8H25.8C25.8 18.8 25.8 17 25.8 16C25.8 14.9 26 14.4 27.1 14.4C28 14.4 30.2 14.4 30.2 14.4V9.40002C30.2 9.40002 26.9 9.40002 26.2 9.40002C21.9 9.40002 20 11.3 20 14.9C20 18.1 20 18.8 20 18.8H17V23.7H20V38H20.1Z" fill="white"/>
</svg>
