<svg version="1.2" xmlns="http://www.w3.org/2000/svg" viewBox="0 0 114 114" width="256" height="256">
	<title>Frame 8 1-svg</title>
	<defs>
		<clipPath clipPathUnits="userSpaceOnUse" id="cp1">
			<path d="m0 15c0-8.28 6.72-15 15-15h84c8.28 0 15 6.72 15 15v84c0 8.28-6.72 15-15 15h-84c-8.28 0-15-6.72-15-15z"/>
		</clipPath>
		<filter x="-50%" y="-50%" width="200%" height="200%" id="f1"> <feGaussianBlur stdDeviation="212.6"/> </filter>
	</defs>
	<style>
		.s0 { fill: #bdffa1 } 
		.s1 { fill: #00677f } 
		.s2 { filter: url(#f1);fill: #00c7b1 } 
		.s3 { opacity: .1 } 
		.s4 { fill: #ffffff } 
		.s5 { fill: #68f2eb } 
		.s6 { fill: #ff94d7 } 
		.s7 { fill: #67cbc6 } 
		.s8 { fill: #db82bd } 
		.s9 { fill: #6effb4 } 
	</style>
	<g id="Clip-Path" clip-path="url(#cp1)">
		<g id="Layer">
			<path id="Layer" class="s0" d="m114 0.2v113.6c0 0.1-0.1 0.2-0.2 0.2h-113.6c-0.1 0-0.2-0.1-0.2-0.2v-113.6c0-0.1 0.1-0.2 0.2-0.2h113.6c0.1 0 0.2 0.1 0.2 0.2z"/>
			<path id="Layer" class="s1" d="m114 114h-114v-114h114z"/>
			<g id="Layer">
				<path id="Layer" class="s2" d="m111.3 112.7c0 30.7-24.9 55.6-55.6 55.6-30.8 0-55.7-24.9-55.7-55.6 0-30.8 24.9-55.7 55.7-55.7 30.7 0 55.6 24.9 55.6 55.7z"/>
			</g>
			<path id="Layer" class="s3" d="m98.2 24l-13.8-35.5 22.5-8.8 13.8 35.5z"/>
			<path id="Layer" class="s3" d="m80 74.7l-13.8-35.4 22.4-8.8 13.8 35.5z"/>
			<path id="Layer" class="s3" d="m98.2 125.5l-13.8-35.5 22.5-8.7 13.8 35.4z"/>
			<path id="Layer" class="s3" d="m12.7 26.6l-13.8-35.4 22.4-8.8 13.9 35.5z"/>
			<path id="Layer" class="s3" d="m-5.5 77.4l-13.9-35.5 22.5-8.7 13.8 35.4z"/>
			<path id="Layer" class="s3" d="m12.7 128.2l-13.8-35.5 22.4-8.8 13.9 35.5z"/>
			<path id="Layer" class="s4" d="m26.3 98.8q0-0.5 0.3-1 0.3-0.5 0.8-0.5 0.3 0 0.9 0.5 0.6 0.5 1.7 1 1.1 0.4 2.6 0.4 2 0 2.9-0.7 0.9-0.7 0.9-1.8 0-1.3-1-2.1-1-0.7-2.4-1.1-1.4-0.4-2.9-0.9c-0.9-0.3-1.7-0.9-2.4-1.6q-1-1.1-1-3 0-2.2 1.6-3.8 1.6-1.6 4.9-1.6 2.1 0 3.9 0.6 1.7 0.6 1.7 1.4 0 0.5-0.4 1.1-0.4 0.6-0.9 0.6-0.2 0-1.5-0.6-1.4-0.6-2.7-0.6-1.9 0-2.7 0.9-0.9 0.8-0.9 1.9 0 1.1 1 1.8 0.9 0.6 2.4 1 1.4 0.3 2.8 0.9 1.5 0.5 2.5 1.7 0.9 1.3 0.9 3.3 0 2.4-1.7 3.8-1.7 1.4-4.8 1.4-2.7 0-4.6-1-1.9-0.9-1.9-2z"/>
			<path id="Layer" fill-rule="evenodd" class="s4" d="m52.3 94.2v-4.1q0-3 2.3-5.3 2.3-2.2 5.4-2.2 3.2 0 5.5 2.2 2.4 2.3 2.4 5.3v4.1q0 3-2.4 5.3-2.3 2.3-5.5 2.3-3.1 0-5.4-2.3-2.3-2.3-2.3-5.3zm3.2 0q0 1.8 1.4 3.2 1.3 1.4 3.1 1.4 1.9 0 3.2-1.4 1.4-1.4 1.4-3.2v-4q0-1.8-1.4-3.2-1.3-1.4-3.2-1.4-1.8 0-3.1 1.4-1.4 1.4-1.4 3.2z"/>
			<path id="Layer" class="s4" d="m70.9 100.3v-16.4q0-0.5 0.5-0.8 0.4-0.3 1.1-0.3 0.7 0 1.1 0.3 0.2 0.2 0.3 0.4 0.1 0.2 0.1 0.5v1.8q0.7-1.3 2.1-2.3c0.9-0.6 2-0.9 3.1-0.9h1.3q0.6 0 0.9 0.4c0.3 0.3 0.4 0.7 0.4 1.1 0 0.4-0.1 0.7-0.4 1q-0.3 0.5-0.9 0.5h-1.3q-2 0-3.5 1.6-1.5 1.6-1.5 4.2v8.9q0 0.5-0.5 0.8c-0.3 0.3-0.7 0.4-1.2 0.4q-0.6 0-1.1-0.4-0.5-0.3-0.5-0.8z"/>
			<path id="Layer" class="s4" d="m84.1 80.2q-0.6-0.6-0.6-1.3 0-0.8 0.6-1.3 0.6-0.6 1.5-0.6c0.5 0 1 0.2 1.4 0.6q0.6 0.5 0.6 1.3 0 0.7-0.6 1.3-0.3 0.3-0.7 0.4-0.3 0.2-0.7 0.2c-0.6 0-1.1-0.2-1.5-0.6zm-0.2 20.1v-16.4q0-0.5 0.5-0.8 0.5-0.3 1.2-0.3 0.7 0 1.1 0.3 0.5 0.3 0.5 0.8v16.4q0 0.4-0.5 0.8c-0.3 0.3-0.7 0.4-1.1 0.4q-0.7 0-1.2-0.4-0.5-0.3-0.5-0.8z"/>
			<path id="Layer" class="s4" d="m41.3 96v-17.4q0-0.4 0.5-0.8 0.5-0.3 1.1-0.3 0.6 0 1.2 0.3 0.5 0.4 0.5 0.8v4.7h5q0.4 0 0.7 0.4 0.3 0.4 0.2 0.9 0.1 0.5-0.2 0.9-0.3 0.3-0.7 0.3h-5v10.1q0 1.7 0.7 2.4 0.7 0.7 2.6 0.7h1.2q0.7 0 1 0.4c0.3 0.3 0.4 0.7 0.4 1 0 0.4-0.1 0.8-0.4 1.1q-0.4 0.5-1 0.5h-1.2q-6.6 0-6.6-6z"/>
			<path id="Layer" class="s3" d="m55.5 25.7l-13.8-35.4 22.4-8.8 13.8 35.5z"/>
			<path id="Layer" class="s3" d="m37.2 76.5l-13.8-35.5 22.5-8.7 13.8 35.4z"/>
			<path id="Layer" class="s3" d="m55.5 127.3l-13.8-35.5 22.4-8.7 13.8 35.4z"/>
			<path id="Layer" class="s5" d="m67.2 18.9c1.5 3.7-0.4 8-4.2 9.5l-21.6 8.5c-3.8 1.5-8.1-0.4-9.5-4.2-1.5-3.8 0.3-8 4.1-9.5l21.6-8.5c3.8-1.5 8.1 0.4 9.6 4.2z"/>
			<path id="Layer" class="s6" d="m82 56.4c1.4 3.7-0.4 8-4.2 9.5l-21.6 8.5c-3.8 1.5-8.1-0.4-9.6-4.2-1.4-3.8 0.4-8 4.2-9.5l21.6-8.5c3.8-1.5 8.1 0.4 9.6 4.2z"/>
			<path id="Layer" class="s7" d="m32 27.1c0.7-1.8 2.2-3.2 4-3.9l13.8-5.4c-1.7 0.6-3.3 1.7-4.5 3-1.3 1.3-2.3 2.9-3 4.7-0.6 1.7-0.8 3.6-0.7 5.4 0.1 1.9 0.7 3.6 1.6 5.3l-1.8 0.7c-1.8 0.7-3.8 0.6-5.6-0.1-1.8-0.8-3.2-2.3-3.9-4.1-0.7-1.8-0.7-3.8 0.1-5.6z"/>
			<path id="Layer" class="s8" d="m70.7 52.9l1.7-0.7c1.8-0.7 3.9-0.7 5.7 0.1 1.7 0.8 3.1 2.2 3.9 4.1 0.7 1.8 0.6 3.8-0.1 5.6-0.8 1.8-2.3 3.2-4.1 3.9l-13.8 5.4c3.2-1.3 5.8-3.8 7.2-6.9 1.4-3.2 1.4-6.8 0.2-10q-0.3-0.8-0.7-1.5z"/>
			<path id="Layer" class="s9" d="m79.4 65.1c1.2-1.5 0.8-3.7-2.8-5.3-1.9-0.9-12-4.2-21-6.9-7.7-2.3-15-4.6-16.7-5.7-3.2-1.9-5.2-3.7-6.9-7.4-2.5-5.1-1.8-13.1 2.4-15.7-1.2 1.5-0.8 3.6 2.8 5.3 1.9 0.9 12 4.1 20.9 6.9 7.7 2.3 15 4.6 16.8 5.7 3.2 1.9 5.1 3.7 6.9 7.3 2.5 5.2 1.8 13.2-2.4 15.8z"/>
		</g>
	</g>
</svg>