<svg width="48" height="48" viewBox="0 0 48 48" fill="none" xmlns="http://www.w3.org/2000/svg">
<path d="M39.3999 47.4H8.8999C4.1999 47.4 0.399902 43.6 0.399902 38.9V8.5C0.399902 3.8 4.1999 0 8.8999 0H39.3999C44.0999 0 47.8999 3.8 47.8999 8.5V39C47.8999 43.6 44.0999 47.4 39.3999 47.4Z" fill="#384967"/>
<path d="M24.2001 13.1C27.7001 13.1 28.1001 13.1 29.5001 13.2C30.8001 13.3 31.5001 13.5 31.9001 13.6C32.5001 13.8 32.9001 14.1 33.4001 14.6C33.9001 15.1 34.1001 15.5 34.4001 16.1C34.6001 16.6 34.8001 17.2 34.8001 18.5C34.9001 19.9 34.9001 20.3 34.9001 23.8C34.9001 27.2999 34.9001 27.7 34.8001 29.1C34.7001 30.4 34.5001 31.1 34.4001 31.5C34.2001 32.1 33.9001 32.5 33.4001 33C32.9001 33.5 32.5001 33.7 31.9001 34C31.4001 34.2 30.8001 34.4 29.5001 34.4C28.1001 34.5 27.7001 34.5 24.2001 34.5C20.7001 34.5 20.3001 34.5 18.9001 34.4C17.6001 34.3 16.9001 34.1 16.5001 34C15.9001 33.7999 15.5001 33.5 15.0001 33C14.5001 32.5 14.3001 32.1 14.0001 31.5C13.8001 31 13.6001 30.4 13.6001 29.1C13.5001 27.7 13.5001 27.2999 13.5001 23.8C13.5001 20.3 13.5001 19.9 13.6001 18.5C13.7001 17.2 13.9001 16.5 14.0001 16.1C14.2001 15.5 14.5001 15.1 15.0001 14.6C15.5001 14.1 15.9001 13.9 16.5001 13.6C17.0001 13.4 17.6001 13.2 18.9001 13.2C20.3001 13.1 20.7001 13.1 24.2001 13.1ZM24.2001 10.7C20.7001 10.7 20.2001 10.7 18.8001 10.8C17.4001 10.9 16.5001 11.1 15.6001 11.4C14.7001 11.7 14.0001 12.2 13.3001 12.9C12.6001 13.6 12.1001 14.3 11.8001 15.2C11.5001 16 11.3001 17 11.2001 18.4C11.1001 19.8 11.1001 20.2 11.1001 23.8C11.1001 27.4 11.1001 27.8 11.2001 29.2C11.3001 30.6 11.5001 31.5 11.8001 32.4C12.1001 33.3 12.6001 34 13.3001 34.7C14.0001 35.4 14.7001 35.9 15.6001 36.2C16.4001 36.5 17.4001 36.6999 18.8001 36.7999C20.2001 36.9 20.6001 36.9 24.2001 36.9C27.7001 36.9 28.2001 36.9 29.6001 36.7999C31.0001 36.6999 31.9001 36.5 32.8001 36.2C33.7001 35.9 34.4001 35.4 35.1001 34.7C35.8001 34 36.3001 33.3 36.6001 32.4C36.9001 31.6 37.1001 30.6 37.2001 29.2C37.3001 27.8 37.3001 27.4 37.3001 23.8C37.3001 20.2 37.3001 19.8 37.2001 18.4C37.0001 17 36.8001 16 36.5001 15.2C36.2001 14.3 35.7001 13.6 35.0001 12.9C34.3001 12.2 33.6001 11.7 32.7001 11.4C31.9001 11.1 30.9001 10.9 29.5001 10.8C28.1001 10.7 27.7001 10.7 24.2001 10.7Z" fill="white"/>
<path d="M24.2 17C20.5 17 17.5 20 17.5 23.7C17.5 27.4 20.5 30.4 24.2 30.4C27.9 30.4 30.9 27.4 30.9 23.7C30.9 20 27.8 17 24.2 17ZM24.2 28C21.8 28 19.9 26.1 19.9 23.7C19.9 21.3 21.8 19.4 24.2 19.4C26.6 19.4 28.5 21.3 28.5 23.7C28.5 26.1 26.5 28 24.2 28Z" fill="white"/>
<path d="M32.7 16.8C32.7 17.7 32 18.4 31.1 18.4C30.2 18.4 29.5 17.7 29.5 16.8C29.5 15.9 30.2 15.2 31.1 15.2C32 15.2 32.7 15.9 32.7 16.8Z" fill="white"/>
</svg>
