<svg width="48" height="48" viewBox="0 0 48 48" fill="none" xmlns="http://www.w3.org/2000/svg">
<path d="M39.1001 47.4H8.6001C3.9001 47.4 0.100098 43.6 0.100098 38.9V8.5C0.100098 3.8 3.9001 0 8.6001 0H39.1001C43.8001 0 47.6001 3.8 47.6001 8.5V39C47.6001 43.6 43.8001 47.4 39.1001 47.4Z" fill="#384967"/>
<path d="M18.1002 18.4H13.2002V34.3H18.1002V18.4Z" fill="white"/>
<path d="M15.6002 16.4C17.2002 16.4 18.5002 15.1 18.5002 13.5C18.5002 11.9 17.2002 10.6 15.6002 10.6C14.0002 10.6 12.7002 11.9 12.7002 13.5C12.7002 15.1 14.0002 16.4 15.6002 16.4Z" fill="white"/>
<path d="M25.9002 26C25.9002 23.8 26.9002 22.4 28.9002 22.4C30.7002 22.4 31.6002 23.7 31.6002 26C31.6002 28.3 31.6002 34.3 31.6002 34.3H36.5002C36.5002 34.3 36.5002 28.5 36.5002 24.3C36.5002 20.1 34.1002 18 30.7002 18C27.3002 18 25.9002 20.6 25.9002 20.6V18.5H21.2002V34.4H25.9002C25.9002 34.3 25.9002 28.4 25.9002 26Z" fill="white"/>
</svg>
