<svg width="45" height="26" viewBox="0 0 45 26" fill="none" xmlns="http://www.w3.org/2000/svg">
<g clip-path="url(#clip0_1658_1013)">
<path d="M22.4911 23.1982C20.1227 24.9493 17.131 26 13.89 26C6.21488 26 0 20.1796 0 12.9917C0 5.80372 6.21488 0 13.89 0C17.1488 0 20.1405 1.05067 22.5089 2.8018C19.3035 5.18666 17.2378 8.87235 17.2378 12.9917C17.22 17.1276 19.2857 20.8133 22.4911 23.1982Z" fill="#E30D17"/>
<path d="M27.7622 13.0083C27.7622 17.1443 25.6965 20.83 22.4911 23.1982C19.2857 20.8134 17.22 17.1443 17.22 13.0083C17.22 8.87236 19.2857 5.20334 22.4911 2.81848C25.7143 5.18667 27.7622 8.87236 27.7622 13.0083Z" fill="#EB610A"/>
<path d="M45 13.0083C45 20.1963 38.7851 26.0167 31.11 26.0167C27.8512 26.0167 24.8595 24.966 22.5089 23.2149C25.7143 20.83 27.78 17.161 27.78 13.025C27.78 8.88903 25.7143 5.22001 22.5089 2.83515C24.8595 1.05067 27.8512 0 31.11 0C38.7673 0 45 5.8204 45 13.0083Z" fill="#F69F00"/>
</g>
<defs>
<clipPath id="clip0_1658_1013">
<rect width="45" height="26" fill="white"/>
</clipPath>
</defs>
</svg>
