<svg width="48" height="48" viewBox="0 0 48 48" fill="none" xmlns="http://www.w3.org/2000/svg">
<path d="M39.3999 47.4H8.8999C4.1999 47.4 0.399902 43.6 0.399902 38.9V8.5C0.399902 3.8 4.1999 0 8.8999 0H39.3999C44.0999 0 47.8999 3.8 47.8999 8.5V39C47.8999 43.6 44.0999 47.4 39.3999 47.4Z" fill="#384967"/>
<path d="M11.5 31.7C13.8 33.2 16.5 34 19.4 34C29 34 34.5 25.9 34.1 18.6C35.1 17.9 36 17 36.7 15.9C35.8 16.3 34.8 16.6 33.7 16.7C34.8 16.1 35.6 15 36 13.8C35 14.4 33.9 14.8 32.7 15.1C31.8 14.1 30.4 13.5 28.9 13.5C25.6 13.5 23.1 16.6 23.9 19.9C19.6 19.7 15.8 17.6 13.2 14.5C11.8 16.8 12.5 19.9 14.8 21.4C13.9 21.4 13.1 21.1 12.5 20.8C12.4 23.2 14.2 25.4 16.7 25.9C16 26.1 15.2 26.1 14.4 26C15.1 28.1 17 29.6 19.2 29.6C17 31.2 14.3 32 11.5 31.7Z" fill="white"/>
</svg>
